<svg width="216" height="46" viewBox="0 0 216 46" fill="none" xmlns="http://www.w3.org/2000/svg">
<path d="M37.457 26.8516C37.457 28.7917 37.125 30.2891 36.4609 31.3438H42.2422C41.9948 31.4089 41.7083 31.5846 41.3828 31.8711C41.0573 32.1576 40.7188 32.457 40.3672 32.7695C39.4427 33.5898 38.7982 34 38.4336 34H32.6328C33.2839 33.0365 33.6094 31.7214 33.6094 30.0547C33.6094 28.388 33.5638 26.7865 33.4727 25.25C33.3945 23.7005 33.3294 22.3724 33.2773 21.2656C33.2253 20.1589 33.1797 19.2409 33.1406 18.5117C33.1146 17.7826 33.0885 17.0469 33.0625 16.3047C32.9583 14.1302 32.8867 12.6914 32.8477 11.9883C31.6888 14.0065 30.5039 16.1029 29.293 18.2773C28.0951 20.4388 27.0664 22.2682 26.207 23.7656C25.3477 25.263 24.6641 26.5 24.1562 27.4766C23.6615 28.4531 23.1341 29.4232 22.5742 30.3867C22.457 30.582 21.8385 31.0443 20.7188 31.7734C19.599 32.5026 18.9544 32.9258 18.7852 33.043C18.069 30.8555 17.1706 28.8177 16.0898 26.9297C15.0091 25.0417 14.1172 23.5312 13.4141 22.3984C12.7109 21.2656 12.0208 20.1328 11.3438 19L8.23828 13.8242C7.67839 20.556 7.2487 24.6771 6.94922 26.1875C6.66276 27.6849 6.38281 28.8177 6.10938 29.5859C5.84896 30.3411 5.51693 30.9271 5.11328 31.3438H11.3633C9.20182 33.1146 7.9388 34 7.57422 34H1.14844C1.90365 33.2448 2.53516 31.5911 3.04297 29.0391C3.61589 26.2005 4.28646 19.3711 5.05469 8.55078H0.152344C1.10286 7.60026 2.22917 6.76693 3.53125 6.05078C3.71354 5.94661 3.85026 5.89453 3.94141 5.89453H8.86328C9.95703 7.70443 11.0443 9.50781 12.125 11.3047L15.3672 16.7148C15.9141 17.6263 16.4674 18.5378 17.0273 19.4492C17.5872 20.3477 18.1341 21.2526 18.668 22.1641C19.957 24.3906 20.9336 26.2786 21.5977 27.8281C22.8346 25.6536 24.293 23.0299 25.9727 19.957C28.9544 14.4622 31.1745 10.4648 32.6328 7.96484C32.8802 7.5612 33.8438 6.86458 35.5234 5.875C35.901 5.65365 36.2005 5.46484 36.4219 5.30859C36.7344 10.9987 36.9557 15.5104 37.0859 18.8438C37.2292 22.1771 37.3268 24.1758 37.3789 24.8398C37.431 25.5039 37.457 26.1745 37.457 26.8516Z" fill="#E54E0C"/>
<path d="M56.9883 28.2188L56.9492 29.5859C56.9492 30.6016 57.2357 31.2461 57.8086 31.5195C58.0299 31.6237 58.2839 31.6758 58.5703 31.6758C59.026 31.6758 59.4948 31.5716 59.9766 31.3633C59.4818 31.5716 59.0521 31.8451 58.6875 32.1836C58.3229 32.5221 57.9518 32.8542 57.5742 33.1797C56.6367 33.9609 55.6927 34.3516 54.7422 34.3516C53.7917 34.3516 53.2839 33.8047 53.2188 32.7109C53.1927 32.4245 53.1797 32.138 53.1797 31.8516C50.8359 33.4792 48.6875 34.293 46.7344 34.293C45.0807 34.293 43.9349 33.7917 43.2969 32.7891C43.0625 32.4245 42.9453 31.9232 42.9453 31.2852C42.9453 30.6471 43.1406 30.0091 43.5312 29.3711C43.9219 28.7201 44.4167 28.1276 45.0156 27.5938C46.0833 26.6042 47.3724 25.7904 48.8828 25.1523C50.0026 24.6706 51.4414 24.3971 53.1992 24.332V23.4727C53.1992 21.4023 53.0104 20.0026 52.6328 19.2734C52.2552 18.5443 51.7669 18.0104 51.168 17.6719C50.569 17.3203 49.8659 17.1445 49.0586 17.1445C47.6914 17.1445 46.487 17.4115 45.4453 17.9453C46.8776 16.7604 47.9258 15.9792 48.5898 15.6016C49.957 14.8333 51.194 14.4492 52.3008 14.4492C53.4206 14.4492 54.2604 14.612 54.8203 14.9375C55.3802 15.263 55.8229 15.6927 56.1484 16.2266C56.7083 17.1641 56.9883 18.5117 56.9883 20.2695V28.2188ZM47.8086 31.0312C48.1211 31.2526 48.4857 31.4154 48.9023 31.5195C49.319 31.6237 49.9375 31.6758 50.7578 31.6758C51.5781 31.6758 52.3919 31.4805 53.1992 31.0898V26.9883H50.0352C48.9023 26.9883 47.9128 27.0664 47.0664 27.2227C46.8971 27.7826 46.8125 28.3164 46.8125 28.8242C46.8125 29.332 46.8971 29.7682 47.0664 30.1328C47.2487 30.4974 47.4961 30.7969 47.8086 31.0312ZM64.1562 32.6719L64.1758 20.1133C64.1758 19.2409 64.0586 18.6549 63.8242 18.3555C63.4206 17.8346 62.8607 17.5742 62.1445 17.5742C61.4284 17.5742 60.7904 17.6784 60.2305 17.8867C60.569 17.7565 61.0117 17.4505 61.5586 16.9688C62.5612 16.0443 63.2708 15.5039 63.6875 15.3477C64.4688 15.0352 65.1523 14.8789 65.7383 14.8789C66.3372 14.8789 66.7799 14.9766 67.0664 15.1719C67.3659 15.3672 67.5807 15.6276 67.7109 15.9531C67.8802 16.3568 67.9648 17.125 67.9648 18.2578C70.3997 16.1094 72.6784 15.0352 74.8008 15.0352C75.9596 15.0352 76.9688 15.3997 77.8281 16.1289C78.7266 16.9102 79.1758 17.8607 79.1758 18.9805V28.6289C79.1758 29.5924 79.2799 30.2565 79.4883 30.6211C79.8789 31.3112 80.5299 31.6562 81.4414 31.6562C81.9622 31.6562 82.457 31.5586 82.9258 31.3633C81.7669 32.3659 80.9661 33.0104 80.5234 33.2969C79.5078 33.9609 78.6159 34.293 77.8477 34.293C77.0924 34.293 76.5521 34.1562 76.2266 33.8828C75.9141 33.6094 75.6927 33.2643 75.5625 32.8477C75.4193 32.3919 75.3477 31.4609 75.3477 30.0547V22.75C75.3477 20.4193 74.5859 18.8828 73.0625 18.1406C72.5156 17.8802 71.8581 17.75 71.0898 17.75C69.2018 17.75 68.1797 19.1497 68.0234 21.9492C67.9844 22.6523 67.9648 23.2839 67.9648 23.8438V29.8789C67.9648 30.7122 68.2188 31.2786 68.7266 31.5781C68.9089 31.6953 69.1367 31.7539 69.4102 31.7539C69.6836 31.7539 69.9701 31.6888 70.2695 31.5586C69.9961 31.793 69.6706 32.0729 69.293 32.3984C68.9154 32.724 68.5182 33.0365 68.1016 33.3359C67.0729 34.0391 66.2526 34.3906 65.6406 34.3906C64.651 34.3906 64.1562 33.8177 64.1562 32.6719ZM101.227 15.0156C101.93 15.0156 102.503 14.8789 102.945 14.6055C102.919 15.0482 102.411 15.5951 101.422 16.2461C100.602 16.793 99.8984 17.138 99.3125 17.2812C99.8073 18.2318 100.055 19.2669 100.055 20.3867C100.055 21.5065 99.8333 22.5026 99.3906 23.375C98.9609 24.2474 98.4141 25.0156 97.75 25.6797C97.099 26.3438 96.3893 26.9232 95.6211 27.418C94.8529 27.9128 94.1367 28.362 93.4727 28.7656C92.8216 29.1693 92.2747 29.5469 91.832 29.8984C91.4023 30.25 91.1875 30.6016 91.1875 30.9531C91.1875 31.2917 91.2591 31.5846 91.4023 31.832C91.5586 32.0794 91.7539 32.2943 91.9883 32.4766C92.418 32.8281 92.8672 33.0951 93.3359 33.2773C93.8177 33.4596 94.3516 33.6549 94.9375 33.8633C95.5365 34.0716 96.1745 34.3125 96.8516 34.5859C97.5286 34.8724 98.2188 35.1784 98.9219 35.5039C99.625 35.8424 100.257 36.2135 100.816 36.6172C102.092 37.5156 102.73 38.4206 102.73 39.332C102.73 40.2435 102.06 41.2266 100.719 42.2812C98.7005 43.8828 96.0833 44.9831 92.8672 45.582C91.8385 45.7773 90.9792 45.875 90.2891 45.875C89.612 45.875 89.026 45.849 88.5312 45.7969C88.0365 45.7578 87.5221 45.6862 86.9883 45.582C86.4674 45.4909 85.9531 45.3672 85.4453 45.2109C84.9375 45.0547 84.4818 44.8594 84.0781 44.625C83.1797 44.1042 82.7305 43.5117 82.7305 42.8477C82.7305 42.1836 82.8542 41.6042 83.1016 41.1094C83.349 40.6146 83.6745 40.1589 84.0781 39.7422C84.4818 39.3255 84.9375 38.9479 85.4453 38.6094C85.9531 38.2708 86.4674 37.9518 86.9883 37.6523C87.5091 37.3659 88.0104 37.0924 88.4922 36.832C88.974 36.5846 89.3906 36.3438 89.7422 36.1094C88.2057 35.4714 87.4375 34.7161 87.4375 33.8438C87.4375 32.9714 88.388 31.8971 90.2891 30.6211C90.7448 30.3216 91.1094 30.0677 91.3828 29.8594C90.8229 30.0286 90.1914 30.1133 89.4883 30.1133C88.7982 30.1133 88.1276 29.9375 87.4766 29.5859C86.8255 29.2214 86.2721 28.7526 85.8164 28.1797C84.8919 26.9948 84.4297 25.582 84.4297 23.9414C84.4297 22.3008 85.0417 20.7448 86.2656 19.2734C87.3464 17.9844 88.7852 16.9167 90.582 16.0703C92.2878 15.276 93.9414 14.8789 95.543 14.8789L101.227 15.0156ZM88.7461 18.3164C88.4076 18.8242 88.2383 19.6576 88.2383 20.8164C88.2383 21.9753 88.3424 22.9323 88.5508 23.6875C88.7591 24.4297 89.0846 25.0807 89.5273 25.6406C90.4909 26.8776 91.8451 27.4961 93.5898 27.4961C94.5794 27.4961 95.3021 27.0078 95.7578 26.0312C96.0964 25.3151 96.2656 24.4753 96.2656 23.5117C96.2656 21.6628 95.862 20.2109 95.0547 19.1562C94.2474 18.0885 93.082 17.5547 91.5586 17.5547C90.0352 17.5547 89.0977 17.8086 88.7461 18.3164ZM97.9258 42.5938C98.2513 42.4115 98.4792 42.1901 98.6094 41.9297C98.7526 41.6693 98.8242 41.3242 98.8242 40.8945C98.8242 40.4779 98.5833 40.0547 98.1016 39.625C97.6198 39.2083 96.9883 38.8177 96.207 38.4531C95.4388 38.1016 93.5703 37.4245 90.6016 36.4219C89.4036 36.9297 88.5703 37.3789 88.1016 37.7695C87.138 38.5768 86.6562 39.4883 86.6562 40.5039C86.6562 41.2721 88.4466 42.0339 92.0273 42.7891C93.2904 43.0625 94.2344 43.1992 94.8594 43.1992C95.4844 43.1992 96.0703 43.1471 96.6172 43.043C97.1641 42.9388 97.6003 42.7891 97.9258 42.5938ZM116.285 28.2188L116.246 29.5859C116.246 30.6016 116.533 31.2461 117.105 31.5195C117.327 31.6237 117.581 31.6758 117.867 31.6758C118.323 31.6758 118.792 31.5716 119.273 31.3633C118.779 31.5716 118.349 31.8451 117.984 32.1836C117.62 32.5221 117.249 32.8542 116.871 33.1797C115.934 33.9609 114.99 34.3516 114.039 34.3516C113.089 34.3516 112.581 33.8047 112.516 32.7109C112.49 32.4245 112.477 32.138 112.477 31.8516C110.133 33.4792 107.984 34.293 106.031 34.293C104.378 34.293 103.232 33.7917 102.594 32.7891C102.359 32.4245 102.242 31.9232 102.242 31.2852C102.242 30.6471 102.438 30.0091 102.828 29.3711C103.219 28.7201 103.714 28.1276 104.312 27.5938C105.38 26.6042 106.669 25.7904 108.18 25.1523C109.299 24.6706 110.738 24.3971 112.496 24.332V23.4727C112.496 21.4023 112.307 20.0026 111.93 19.2734C111.552 18.5443 111.064 18.0104 110.465 17.6719C109.866 17.3203 109.163 17.1445 108.355 17.1445C106.988 17.1445 105.784 17.4115 104.742 17.9453C106.174 16.7604 107.223 15.9792 107.887 15.6016C109.254 14.8333 110.491 14.4492 111.598 14.4492C112.717 14.4492 113.557 14.612 114.117 14.9375C114.677 15.263 115.12 15.6927 115.445 16.2266C116.005 17.1641 116.285 18.5117 116.285 20.2695V28.2188ZM107.105 31.0312C107.418 31.2526 107.783 31.4154 108.199 31.5195C108.616 31.6237 109.234 31.6758 110.055 31.6758C110.875 31.6758 111.689 31.4805 112.496 31.0898V26.9883H109.332C108.199 26.9883 107.21 27.0664 106.363 27.2227C106.194 27.7826 106.109 28.3164 106.109 28.8242C106.109 29.332 106.194 29.7682 106.363 30.1328C106.546 30.4974 106.793 30.7969 107.105 31.0312ZM107.047 13.7852V13.5508C108.076 12.8737 108.967 12.099 109.723 11.2266C110.634 10.1719 111.643 8.89583 112.75 7.39844C112.763 7.3724 113.134 7.09245 113.863 6.55859C114.592 6.02474 114.996 5.73177 115.074 5.67969C115.152 5.61458 115.276 5.53646 115.445 5.44531C115.615 5.35417 115.777 5.26302 115.934 5.17188C116.09 5.08073 116.259 4.98307 116.441 4.87891C116.09 5.33464 115.719 5.82943 115.328 6.36328C114.951 6.88411 114.449 7.48958 113.824 8.17969C112.457 9.6901 111.142 10.9141 109.879 11.8516C108.629 12.7891 107.685 13.4336 107.047 13.7852ZM158.922 29.7422C158.922 31.0443 159.299 31.6953 160.055 31.6953C160.315 31.6953 160.712 31.5846 161.246 31.3633C160.738 32.4961 159.977 33.349 158.961 33.9219C158.44 34.2214 157.887 34.3516 157.301 34.3125C156.715 34.2865 156.292 34.1302 156.031 33.8438C155.784 33.5573 155.589 33.2122 155.445 32.8086C155.237 32.1706 155.133 31.3503 155.133 30.3477V8.04297C155.133 6.66276 154.892 5.74479 154.41 5.28906C154.189 5.08073 153.909 4.97656 153.57 4.97656C153.01 4.97656 152.398 5.06771 151.734 5.25C153.323 4 155.719 2.36589 158.922 0.347656V18.2578C160.549 16.8255 162.216 15.849 163.922 15.3281C164.547 15.1328 165.152 15.0352 165.738 15.0352C166.324 15.0352 166.878 15.1328 167.398 15.3281C167.932 15.5104 168.408 15.7708 168.824 16.1094C169.749 16.8776 170.211 17.8346 170.211 18.9805V28.9219C170.211 30.6406 170.628 31.5911 171.461 31.7734C171.695 31.8255 171.943 31.8516 172.203 31.8516C172.607 31.8516 173.173 31.6888 173.902 31.3633C172.822 32.7435 171.565 33.6484 170.133 34.0781C169.638 34.2344 169.104 34.3125 168.531 34.3125C167.971 34.3125 167.535 34.1758 167.223 33.9023C166.91 33.6289 166.695 33.2839 166.578 32.8672C166.461 32.4505 166.402 31.9948 166.402 31.5V22.75C166.402 20.7578 166.096 19.4167 165.484 18.7266C164.924 18.0755 163.889 17.75 162.379 17.75C160.361 17.75 159.234 19.1302 159 21.8906C158.948 22.5938 158.922 23.2448 158.922 23.8438V29.7422ZM191.852 17.125C192.516 17.8802 193.03 18.7461 193.395 19.7227C193.772 20.6862 193.961 21.6562 193.961 22.6328C193.961 23.6094 193.818 24.5664 193.531 25.5039C193.245 26.4284 192.841 27.3203 192.32 28.1797C191.812 29.0391 191.207 29.8464 190.504 30.6016C189.814 31.3438 189.052 31.9948 188.219 32.5547C186.448 33.7396 184.658 34.332 182.848 34.332C180.725 34.332 178.922 33.5052 177.438 31.8516C175.992 30.263 175.27 28.401 175.27 26.2656C175.27 24.4427 175.823 22.6133 176.93 20.7773C178.583 17.9909 180.836 16.1094 183.688 15.1328C184.599 14.8073 185.562 14.6445 186.578 14.6445C187.594 14.6445 188.557 14.8724 189.469 15.3281C190.393 15.7708 191.188 16.3698 191.852 17.125ZM182.613 17.2617C181.311 17.2617 180.361 17.8932 179.762 19.1562C179.293 20.1458 179.059 21.2656 179.059 22.5156C179.059 23.7656 179.221 24.931 179.547 26.0117C179.885 27.0794 180.38 28.0365 181.031 28.8828C182.477 30.7839 184.339 31.7344 186.617 31.7344C187.945 31.7344 188.909 31.0703 189.508 29.7422C189.938 28.7526 190.152 27.6133 190.152 26.3242C190.152 23.8112 189.449 21.6758 188.043 19.918C186.65 18.1471 184.84 17.2617 182.613 17.2617ZM195.289 17.8477C197.581 15.8034 199.436 14.7812 200.855 14.7812C202.04 14.7812 202.704 15.4323 202.848 16.7344C202.887 17.099 202.906 17.4635 202.906 17.8281C204.221 16.8646 205.159 16.2331 205.719 15.9336C206.93 15.2695 208.095 14.9375 209.215 14.9375C210.348 14.9375 211.35 15.1589 212.223 15.6016C213.108 16.0312 213.831 16.6237 214.391 17.3789C215.445 18.8242 215.973 20.7513 215.973 23.1602C215.973 26.0117 214.69 28.5964 212.125 30.9141C210.589 32.3073 208.844 33.2969 206.891 33.8828C205.927 34.1562 205.1 34.293 204.41 34.293C203.733 34.293 203.232 34.2604 202.906 34.1953V39.7812C202.906 41.2135 202.451 42.3594 201.539 43.2188H206.305C206.161 43.2318 205.927 43.375 205.602 43.6484C205.276 43.9349 204.924 44.2409 204.547 44.5664C203.505 45.4388 202.828 45.875 202.516 45.875H197.75C198.648 44.6901 199.098 43.2839 199.098 41.6562V19.9961C199.098 19.1367 198.993 18.5638 198.785 18.2773C198.408 17.7435 197.874 17.4766 197.184 17.4766C196.493 17.4766 195.862 17.6003 195.289 17.8477ZM202.906 28.8438C204.013 30.7448 205.706 31.6953 207.984 31.6953C210.38 31.6953 211.734 30.5104 212.047 28.1406C212.151 27.4245 212.203 26.5911 212.203 25.6406C212.203 24.6771 212.086 23.7005 211.852 22.7109C211.617 21.7083 211.24 20.8294 210.719 20.0742C209.56 18.4206 207.828 17.5938 205.523 17.5938C204.495 17.5938 203.622 18.1862 202.906 19.3711V28.8438Z" fill="black"/>
<path d="M144.918 10.4258C145.361 9.98307 145.582 9.66406 145.582 9.46875C145.582 9.26042 145.484 9.08464 145.289 8.94141C145.107 8.79818 144.866 8.67448 144.566 8.57031C144.28 8.46615 143.954 8.38151 143.59 8.31641C143.238 8.23828 142.893 8.17969 142.555 8.14062C141.878 8.0625 141.298 8.02344 140.816 8.02344C140.348 8.02344 139.801 8.06901 139.176 8.16016C138.564 8.2513 137.997 8.42708 137.477 8.6875C136.292 9.28646 135.699 10.1784 135.699 11.3633C135.699 12.5482 135.914 13.4987 136.344 14.2148C136.786 14.918 137.359 15.5039 138.062 15.9727C138.766 16.4414 139.566 16.832 140.465 17.1445C141.376 17.457 142.307 17.75 143.258 18.0234C144.208 18.2969 145.133 18.5898 146.031 18.9023C146.943 19.2148 147.75 19.612 148.453 20.0938C150.029 21.1745 150.816 22.6784 150.816 24.6055C150.816 26.4935 150.016 28.2448 148.414 29.8594C147.047 31.2396 145.23 32.3724 142.965 33.2578C140.921 34.0651 138.961 34.4688 137.086 34.4688C135.927 34.4688 134.872 34.332 133.922 34.0586C132.984 33.7852 132.32 33.5443 131.93 33.3359C131.018 32.8802 130.562 32.3398 130.562 31.7148C130.562 30.7122 132.053 29.3971 135.035 27.7695C134.645 28.1992 134.449 28.6159 134.449 29.0195C134.449 29.4102 134.573 29.7487 134.82 30.0352C135.081 30.3086 135.413 30.5495 135.816 30.7578C136.22 30.9531 136.669 31.1159 137.164 31.2461C137.672 31.3763 138.173 31.4805 138.668 31.5586C139.579 31.7018 140.406 31.7734 141.148 31.7734C141.891 31.7734 142.62 31.7083 143.336 31.5781C144.052 31.4349 144.69 31.194 145.25 30.8555C146.513 30.1003 147.145 28.9089 147.145 27.2812C147.145 24.7552 145.543 22.8802 142.34 21.6562C141.428 21.3177 140.491 20.9987 139.527 20.6992C138.577 20.3867 137.646 20.0677 136.734 19.7422C135.823 19.4167 135.016 19.026 134.312 18.5703C132.724 17.5286 131.93 16.1549 131.93 14.4492C131.93 13.0299 132.73 11.5651 134.332 10.0547C135.712 8.7526 137.451 7.63281 139.547 6.69531C141.539 5.79688 143.238 5.34766 144.645 5.34766C145.908 5.34766 146.923 5.46484 147.691 5.69922C148.46 5.93359 148.941 6.11589 149.137 6.24609C149.345 6.36328 149.449 6.50651 149.449 6.67578C149.449 6.83203 149.358 7.02734 149.176 7.26172C148.993 7.48307 148.759 7.72396 148.473 7.98438C148.186 8.24479 147.867 8.50521 147.516 8.76562C147.177 9.02604 146.839 9.26693 146.5 9.48828C145.719 9.99609 145.191 10.3086 144.918 10.4258Z" fill="#E64E0C"/>
</svg>
